<mxfile host="app.diagrams.net" modified="2023-11-09T16:01:29.516Z" agent="Mozilla/5.0 (X11; Linux x86_64; rv:109.0) Gecko/20100101 Firefox/115.0" etag="ABceEP2RsaZFjxrVuGbL" version="22.1.0" type="github">
  <diagram name="Page-1" id="qkShx8b-XhUbCJgMwpHc">
    <mxGraphModel dx="2064" dy="1115" grid="1" gridSize="10" guides="1" tooltips="1" connect="1" arrows="1" fold="1" page="1" pageScale="1" pageWidth="1654" pageHeight="1169" math="0" shadow="0">
      <root>
        <mxCell id="0" />
        <mxCell id="1" parent="0" />
        <mxCell id="1mL1j_79dPRj5nGahrVe-1" value="&lt;div align=&quot;left&quot;&gt;&lt;font size=&quot;1&quot;&gt;&lt;b&gt;&lt;font style=&quot;font-size: 24px;&quot;&gt;UML Komponentendiagramm&lt;/font&gt;&lt;/b&gt;&lt;/font&gt;&lt;/div&gt;" style="text;html=1;strokeColor=none;fillColor=none;align=left;verticalAlign=middle;whiteSpace=wrap;rounded=0;" parent="1" vertex="1">
          <mxGeometry x="40" y="10" width="360" height="70" as="geometry" />
        </mxCell>
        <mxCell id="1mL1j_79dPRj5nGahrVe-26" value="" style="ellipse;whiteSpace=wrap;html=1;align=center;aspect=fixed;fillColor=none;strokeColor=none;resizable=0;perimeter=centerPerimeter;rotatable=0;allowArrows=0;points=[];outlineConnect=1;strokeWidth=4;" parent="1" vertex="1">
          <mxGeometry x="335" y="420" width="10" height="10" as="geometry" />
        </mxCell>
        <mxCell id="MHBLhv_nWnq3smd3Q6zy-2" value="" style="ellipse;whiteSpace=wrap;html=1;align=center;aspect=fixed;fillColor=none;strokeColor=none;resizable=0;perimeter=centerPerimeter;rotatable=0;allowArrows=0;points=[];outlineConnect=1;" parent="1" vertex="1">
          <mxGeometry x="810" y="570" width="10" height="10" as="geometry" />
        </mxCell>
        <mxCell id="MHBLhv_nWnq3smd3Q6zy-4" value="" style="ellipse;whiteSpace=wrap;html=1;align=center;aspect=fixed;fillColor=none;strokeColor=none;resizable=0;perimeter=centerPerimeter;rotatable=0;allowArrows=0;points=[];outlineConnect=1;" parent="1" vertex="1">
          <mxGeometry x="810" y="570" width="10" height="10" as="geometry" />
        </mxCell>
        <mxCell id="MHBLhv_nWnq3smd3Q6zy-6" value="" style="ellipse;whiteSpace=wrap;html=1;align=center;aspect=fixed;fillColor=none;strokeColor=none;resizable=0;perimeter=centerPerimeter;rotatable=0;allowArrows=0;points=[];outlineConnect=1;" parent="1" vertex="1">
          <mxGeometry x="1310" y="80" width="10" height="10" as="geometry" />
        </mxCell>
        <mxCell id="MHBLhv_nWnq3smd3Q6zy-8" value="Benötigt" style="text;html=1;align=center;verticalAlign=middle;resizable=0;points=[];autosize=1;strokeColor=none;fillColor=none;" parent="1" vertex="1">
          <mxGeometry x="1425" y="65.5" width="70" height="30" as="geometry" />
        </mxCell>
        <mxCell id="MHBLhv_nWnq3smd3Q6zy-9" value="" style="rounded=0;orthogonalLoop=1;jettySize=auto;html=1;endArrow=oval;endFill=0;sketch=0;sourcePerimeterSpacing=0;targetPerimeterSpacing=0;endSize=10;strokeWidth=4;" parent="1" edge="1">
          <mxGeometry relative="1" as="geometry">
            <mxPoint x="1520" y="150.5" as="sourcePoint" />
            <mxPoint x="1400" y="150" as="targetPoint" />
          </mxGeometry>
        </mxCell>
        <mxCell id="MHBLhv_nWnq3smd3Q6zy-10" value="&lt;b&gt;Interface&lt;/b&gt;" style="edgeLabel;html=1;align=center;verticalAlign=middle;resizable=0;points=[];" parent="MHBLhv_nWnq3smd3Q6zy-9" vertex="1" connectable="0">
          <mxGeometry x="0.0003" y="-4" relative="1" as="geometry">
            <mxPoint y="14" as="offset" />
          </mxGeometry>
        </mxCell>
        <mxCell id="MHBLhv_nWnq3smd3Q6zy-11" value="Stellt zur Verfügung" style="text;html=1;align=center;verticalAlign=middle;resizable=0;points=[];autosize=1;strokeColor=none;fillColor=none;" parent="1" vertex="1">
          <mxGeometry x="1395" y="180" width="130" height="30" as="geometry" />
        </mxCell>
        <mxCell id="EdcyShIu8UzbE3kWzQvD-1" value="&lt;font style=&quot;font-size: 14px;&quot;&gt;&lt;b&gt;eComm2020&lt;/b&gt;&lt;/font&gt;" style="html=1;dropTarget=0;whiteSpace=wrap;" vertex="1" parent="1">
          <mxGeometry x="1360" y="240" width="200" height="240" as="geometry" />
        </mxCell>
        <mxCell id="EdcyShIu8UzbE3kWzQvD-2" value="" style="shape=module;jettyWidth=8;jettyHeight=4;" vertex="1" parent="EdcyShIu8UzbE3kWzQvD-1">
          <mxGeometry x="1" width="20" height="20" relative="1" as="geometry">
            <mxPoint x="-27" y="7" as="offset" />
          </mxGeometry>
        </mxCell>
        <mxCell id="EdcyShIu8UzbE3kWzQvD-4" value="" style="rounded=0;whiteSpace=wrap;html=1;" vertex="1" parent="1">
          <mxGeometry x="1350" y="260" width="20" height="20" as="geometry" />
        </mxCell>
        <mxCell id="EdcyShIu8UzbE3kWzQvD-5" value="" style="rounded=0;orthogonalLoop=1;jettySize=auto;html=1;endArrow=oval;endFill=0;sketch=0;sourcePerimeterSpacing=0;targetPerimeterSpacing=0;endSize=10;strokeWidth=4;" edge="1" parent="1">
          <mxGeometry relative="1" as="geometry">
            <mxPoint x="1350" y="270" as="sourcePoint" />
            <mxPoint x="1230" y="269.5" as="targetPoint" />
          </mxGeometry>
        </mxCell>
        <mxCell id="EdcyShIu8UzbE3kWzQvD-6" value="&lt;b&gt;Interface&lt;/b&gt;" style="edgeLabel;html=1;align=center;verticalAlign=middle;resizable=0;points=[];" vertex="1" connectable="0" parent="EdcyShIu8UzbE3kWzQvD-5">
          <mxGeometry x="0.0003" y="-4" relative="1" as="geometry">
            <mxPoint y="14" as="offset" />
          </mxGeometry>
        </mxCell>
        <mxCell id="EdcyShIu8UzbE3kWzQvD-7" value="" style="rounded=0;whiteSpace=wrap;html=1;" vertex="1" parent="1">
          <mxGeometry x="1350" y="430" width="20" height="20" as="geometry" />
        </mxCell>
        <mxCell id="EdcyShIu8UzbE3kWzQvD-8" value="" style="rounded=0;orthogonalLoop=1;jettySize=auto;html=1;endArrow=halfCircle;endFill=0;endSize=6;strokeWidth=6;sketch=0;shadow=0;" edge="1" parent="1">
          <mxGeometry relative="1" as="geometry">
            <mxPoint x="1350" y="439.5" as="sourcePoint" />
            <mxPoint x="1230" y="439.5" as="targetPoint" />
          </mxGeometry>
        </mxCell>
        <mxCell id="EdcyShIu8UzbE3kWzQvD-9" value="&lt;div&gt;&lt;b&gt;Payment&lt;/b&gt;&lt;/div&gt;" style="edgeLabel;html=1;align=center;verticalAlign=middle;resizable=0;points=[];" vertex="1" connectable="0" parent="EdcyShIu8UzbE3kWzQvD-8">
          <mxGeometry x="0.0833" y="1" relative="1" as="geometry">
            <mxPoint y="12" as="offset" />
          </mxGeometry>
        </mxCell>
        <mxCell id="EdcyShIu8UzbE3kWzQvD-10" value="" style="rounded=0;orthogonalLoop=1;jettySize=auto;html=1;endArrow=halfCircle;endFill=0;endSize=6;strokeWidth=6;sketch=0;shadow=0;" edge="1" parent="1">
          <mxGeometry relative="1" as="geometry">
            <mxPoint x="1520" y="40" as="sourcePoint" />
            <mxPoint x="1400" y="40" as="targetPoint" />
          </mxGeometry>
        </mxCell>
        <mxCell id="EdcyShIu8UzbE3kWzQvD-11" value="&lt;div&gt;&lt;b&gt;Payment&lt;/b&gt;&lt;/div&gt;" style="edgeLabel;html=1;align=center;verticalAlign=middle;resizable=0;points=[];" vertex="1" connectable="0" parent="EdcyShIu8UzbE3kWzQvD-10">
          <mxGeometry x="0.0833" y="1" relative="1" as="geometry">
            <mxPoint y="12" as="offset" />
          </mxGeometry>
        </mxCell>
      </root>
    </mxGraphModel>
  </diagram>
</mxfile>
